<svg width="34" height="33" viewBox="0 0 34 33" fill="none" xmlns="http://www.w3.org/2000/svg">
<path d="M25.2266 6.61719C25.2266 4.92969 24.8398 3.6875 24.0664 2.89062C23.293 2.09375 22.3555 1.69531 21.2539 1.69531C17.4336 1.69531 13.8828 4.625 10.6016 10.4844C7.71875 15.6406 6.27734 20.082 6.27734 23.8086C6.27734 25.6836 6.67578 27.0547 7.47266 27.9219C8.29297 28.7656 9.30078 29.1875 10.4961 29.1875C14.0352 29.1875 17.4453 26.3398 20.7266 20.6445C23.7266 15.4648 25.2266 10.7891 25.2266 6.61719ZM20.832 0.113281C22.6836 0.113281 24.1133 0.59375 25.1211 1.55469C25.6602 2.07031 26.082 2.75 26.3867 3.59375L26.5625 4.08594L27.3359 1.41406C27.4297 1.10938 27.5117 0.910156 27.582 0.816406C27.6523 0.699219 27.8164 0.628906 28.0742 0.605469L32.0469 0.148438C32.2578 0.148438 32.375 0.195312 32.3984 0.289062C32.4453 0.359375 32.4453 0.5 32.3984 0.710938C32.3047 1.01562 32.2344 1.26172 32.1875 1.44922C32.1406 1.61328 32.0703 1.85938 31.9766 2.1875L28.7422 14.7734C28.0391 17.5156 27.4414 19.8828 26.9492 21.875C26.082 25.4844 25.6484 27.5469 25.6484 28.0625C25.6484 28.3906 25.7305 28.6367 25.8945 28.8008C26.082 28.9414 26.3047 29.0117 26.5625 29.0117C26.7734 29.0117 26.9961 28.9414 27.2305 28.8008C27.4883 28.6602 27.793 28.4492 28.1445 28.168L28.7422 27.6758C28.9297 27.5117 29.1406 27.3242 29.375 27.1133C29.6094 26.8789 29.8906 26.5977 30.2188 26.2695L32.3984 24.0195L33.2422 24.7578C30.8047 27.875 28.8477 29.9961 27.3711 31.1211C25.8945 32.2227 24.4883 32.7734 23.1523 32.7734C22.2852 32.7734 21.6055 32.4688 21.1133 31.8594C20.6445 31.25 20.4102 30.4883 20.4102 29.5742C20.4102 28.7305 20.5625 27.5234 20.8672 25.9531C21.1953 24.3594 21.5117 23.0234 21.8164 21.9453C21.3945 22.6484 20.6797 23.6797 19.6719 25.0391C18.6875 26.375 17.4688 27.6758 16.0156 28.9414C14.3047 30.4648 12.6641 31.543 11.0938 32.1758C9.875 32.5977 8.70312 32.8086 7.57812 32.8086C5.67969 32.8086 3.95703 32.0352 2.41016 30.4883C0.863281 28.918 0.0898438 26.7031 0.0898438 23.8438C0.0898438 18.9219 2.29297 13.7891 6.69922 8.44531C11.2461 2.89062 15.957 0.113281 20.832 0.113281Z" fill="white"/>
</svg>
