<svg width="32" height="36" viewBox="0 0 32 36" fill="none" xmlns="http://www.w3.org/2000/svg">
<path d="M17.0708 22.6304V16.9619H31.7124V30.3643C30.2896 31.7412 28.2241 32.9575 25.5161 34.0132C22.8234 35.0535 20.0924 35.5737 17.3232 35.5737C13.8044 35.5737 10.7368 34.8394 8.12061 33.3706C5.50439 31.8866 3.53841 29.7752 2.22266 27.0366C0.906901 24.2827 0.249023 21.2917 0.249023 18.0635C0.249023 14.5599 0.983398 11.4465 2.45215 8.72314C3.9209 5.99984 6.07048 3.91146 8.90088 2.45801C11.0581 1.34115 13.7432 0.782715 16.9561 0.782715C21.1328 0.782715 24.3916 1.66243 26.7324 3.42188C29.0885 5.16602 30.6032 7.58333 31.2764 10.6738L24.5293 11.936C24.055 10.2837 23.16 8.98324 21.8442 8.03467C20.5438 7.0708 18.9144 6.58887 16.9561 6.58887C13.988 6.58887 11.6242 7.52979 9.86475 9.41162C8.12061 11.2935 7.24854 14.0856 7.24854 17.7881C7.24854 21.7812 8.1359 24.7799 9.91064 26.7842C11.6854 28.7731 14.0109 29.7676 16.8872 29.7676C18.3101 29.7676 19.7329 29.4922 21.1558 28.9414C22.5939 28.3753 23.8255 27.6945 24.8506 26.8989V22.6304H17.0708Z" fill="white"/>
</svg>
