<svg width="19" height="51" viewBox="0 0 19 51" fill="none" xmlns="http://www.w3.org/2000/svg">
<path d="M11.0781 7.35547C11.1719 7.05078 11.2305 6.74609 11.2539 6.44141C11.2773 6.13672 11.2891 5.89062 11.2891 5.70312C11.2891 4.90625 10.9609 4.42578 10.3047 4.26172C9.67188 4.07422 8.39453 3.99219 6.47266 4.01562V2.85547C7.52734 2.71484 8.73438 2.55078 10.0938 2.36328C11.4766 2.17578 12.3789 2.04688 12.8008 1.97656C14.1133 1.74219 15.707 1.39062 17.582 0.921875C17.7461 0.921875 17.9102 1.03906 18.0742 1.27344L7 43.5312C6.74219 44.5391 6.58984 45.1484 6.54297 45.3594C6.49609 45.5703 6.47266 45.7812 6.47266 45.9922C6.47266 46.4375 6.55469 46.8242 6.71875 47.1523C6.88281 47.457 7.1875 47.6094 7.63281 47.6094C8.47656 47.6094 9.57812 46.8594 10.9375 45.3594C12.2969 43.8594 13.4453 42.4062 14.3828 41L15.332 41.668C13.3164 44.6445 11.7461 46.707 10.6211 47.8555C8.67578 49.8008 6.71875 50.7734 4.75 50.7734C3.90625 50.7734 3.15625 50.5625 2.5 50.1406C1.49219 49.5078 0.988281 48.4297 0.988281 46.9062C0.988281 46.3203 1.08203 45.5352 1.26953 44.5508C1.38672 43.9648 1.53906 43.2852 1.72656 42.5117L11.0781 7.35547Z" fill="white"/>
</svg>
