<svg width="34" height="33" viewBox="0 0 34 33" fill="none" xmlns="http://www.w3.org/2000/svg">
<path d="M0.300781 32L6.38281 10.2734C6.89844 8.44531 7.19141 7.34375 7.26172 6.96875C7.35547 6.57031 7.40234 6.14844 7.40234 5.70312C7.40234 5.02344 7.20312 4.49609 6.80469 4.12109C6.42969 3.72266 5.67969 3.52344 4.55469 3.52344C4.27344 3.52344 3.99219 3.54688 3.71094 3.59375C3.45312 3.61719 3.16016 3.65234 2.83203 3.69922V2.50391C4.35547 2.26953 5.43359 2.09375 6.06641 1.97656C6.72266 1.85938 7.42578 1.71875 8.17578 1.55469L14.4688 0.183594C14.6094 0.277344 14.7031 0.382812 14.75 0.5L10.0742 15.6172C12.9336 11.2344 15.3242 7.97656 17.2461 5.84375C20.6211 2.07031 23.6445 0.183594 26.3164 0.183594C27.3477 0.183594 28.2383 0.382812 28.9883 0.78125C30.418 1.55469 31.1328 2.94922 31.1328 4.96484C31.1328 5.52734 31.0742 6.11328 30.957 6.72266C30.8398 7.33203 30.6875 7.98828 30.5 8.69141L25.8945 25.5312C25.8008 25.8828 25.6953 26.3164 25.5781 26.832C25.4609 27.3242 25.4023 27.6758 25.4023 27.8867C25.4023 28.2383 25.4844 28.5547 25.6484 28.8359C25.8125 29.1172 26.082 29.2578 26.457 29.2578C27.0664 29.2578 27.7695 28.9062 28.5664 28.2031C29.3633 27.4766 30.6641 25.9414 32.4688 23.5977L33.4883 24.5117C31.5664 27.1133 30.043 28.9414 28.918 29.9961C26.9961 31.8477 25.1562 32.7734 23.3984 32.7734C22.6016 32.7734 21.8281 32.5156 21.0781 32C20.3516 31.4609 19.9883 30.5 19.9883 29.1172C19.9883 28.7188 20.0117 28.2969 20.0586 27.8516C20.1289 27.4062 20.2109 27.0195 20.3047 26.6914L24.7344 9.60547C24.9688 8.66797 25.1211 7.90625 25.1914 7.32031C25.2852 6.71094 25.332 6.27734 25.332 6.01953C25.332 5.45703 25.1914 4.97656 24.9102 4.57812C24.6523 4.15625 24.1836 3.94531 23.5039 3.94531C21.7461 3.94531 19.5312 5.53906 16.8594 8.72656C15.2891 10.625 13.6953 12.8867 12.0781 15.5117C10.8359 17.5508 9.85156 19.543 9.125 21.4883C8.42188 23.4102 7.29688 26.9141 5.75 32H0.300781Z" fill="white"/>
</svg>
