<svg width="372" height="51" viewBox="0 0 372 51" fill="none" xmlns="http://www.w3.org/2000/svg">
<path d="M0.300781 50L6.38281 28.2734C6.89844 26.4453 7.19141 25.3438 7.26172 24.9688C7.35547 24.5703 7.40234 24.1484 7.40234 23.7031C7.40234 23.0234 7.20312 22.4961 6.80469 22.1211C6.42969 21.7227 5.67969 21.5234 4.55469 21.5234C4.27344 21.5234 3.99219 21.5469 3.71094 21.5938C3.45312 21.6172 3.16016 21.6523 2.83203 21.6992V20.5039C4.35547 20.2695 5.43359 20.0938 6.06641 19.9766C6.72266 19.8594 7.42578 19.7188 8.17578 19.5547L14.4688 18.1836C14.6094 18.2773 14.7031 18.3828 14.75 18.5L10.0742 33.6172C12.9336 29.2344 15.3242 25.9766 17.2461 23.8438C20.6211 20.0703 23.6445 18.1836 26.3164 18.1836C27.3477 18.1836 28.2383 18.3828 28.9883 18.7812C30.418 19.5547 31.1328 20.9492 31.1328 22.9648C31.1328 23.5273 31.0742 24.1133 30.957 24.7227C30.8398 25.332 30.6875 25.9883 30.5 26.6914L25.8945 43.5312C25.8008 43.8828 25.6953 44.3164 25.5781 44.832C25.4609 45.3242 25.4023 45.6758 25.4023 45.8867C25.4023 46.2383 25.4844 46.5547 25.6484 46.8359C25.8125 47.1172 26.082 47.2578 26.457 47.2578C27.0664 47.2578 27.7695 46.9062 28.5664 46.2031C29.3633 45.4766 30.6641 43.9414 32.4688 41.5977L33.4883 42.5117C31.5664 45.1133 30.043 46.9414 28.918 47.9961C26.9961 49.8477 25.1562 50.7734 23.3984 50.7734C22.6016 50.7734 21.8281 50.5156 21.0781 50C20.3516 49.4609 19.9883 48.5 19.9883 47.1172C19.9883 46.7188 20.0117 46.2969 20.0586 45.8516C20.1289 45.4062 20.2109 45.0195 20.3047 44.6914L24.7344 27.6055C24.9688 26.668 25.1211 25.9062 25.1914 25.3203C25.2852 24.7109 25.332 24.2773 25.332 24.0195C25.332 23.457 25.1914 22.9766 24.9102 22.5781C24.6523 22.1562 24.1836 21.9453 23.5039 21.9453C21.7461 21.9453 19.5312 23.5391 16.8594 26.7266C15.2891 28.625 13.6953 30.8867 12.0781 33.5117C10.8359 35.5508 9.85156 37.543 9.125 39.4883C8.42188 41.4102 7.29688 44.9141 5.75 50H0.300781ZM42.9805 42.4414C42.9805 44.3867 43.4609 46.0039 44.4219 47.293C45.4062 48.5586 46.8359 49.1914 48.7109 49.1914C52.5312 49.1914 55.918 46.3086 58.8711 40.543C61.3789 35.5977 62.6328 31.0508 62.6328 26.9023C62.6328 25.1445 62.4219 23.7266 62 22.6484C61.1797 20.6094 59.6797 19.5898 57.5 19.5898C53.9141 19.5898 50.5508 22.2734 47.4102 27.6406C44.457 32.6562 42.9805 37.5898 42.9805 42.4414ZM57.8867 18.1133C61.8242 18.1133 64.6016 19.168 66.2188 21.2773C67.8359 23.3633 68.6445 25.8359 68.6445 28.6953C68.6445 33.6641 66.4531 38.5391 62.0703 43.3203C57.5469 48.2891 52.7188 50.7734 47.5859 50.7734C44.3516 50.7734 41.7617 49.8359 39.8164 47.9609C37.8711 46.0859 36.8984 43.4492 36.8984 40.0508C36.8984 34.918 39.0781 30.0078 43.4375 25.3203C47.8906 20.5156 52.707 18.1133 57.8867 18.1133ZM84.0781 7.35547C84.1719 7.05078 84.2305 6.74609 84.2539 6.44141C84.2773 6.13672 84.2891 5.89062 84.2891 5.70312C84.2891 4.90625 83.9609 4.42578 83.3047 4.26172C82.6719 4.07422 81.3945 3.99219 79.4727 4.01562V2.85547C80.5273 2.71484 81.7344 2.55078 83.0938 2.36328C84.4766 2.17578 85.3789 2.04688 85.8008 1.97656C87.1133 1.74219 88.707 1.39062 90.582 0.921875C90.7461 0.921875 90.9102 1.03906 91.0742 1.27344L80 43.5312C79.7422 44.5391 79.5898 45.1484 79.543 45.3594C79.4961 45.5703 79.4727 45.7812 79.4727 45.9922C79.4727 46.4375 79.5547 46.8242 79.7188 47.1523C79.8828 47.457 80.1875 47.6094 80.6328 47.6094C81.4766 47.6094 82.5781 46.8594 83.9375 45.3594C85.2969 43.8594 86.4453 42.4062 87.3828 41L88.332 41.668C86.3164 44.6445 84.7461 46.707 83.6211 47.8555C81.6758 49.8008 79.7188 50.7734 77.75 50.7734C76.9062 50.7734 76.1562 50.5625 75.5 50.1406C74.4922 49.5078 73.9883 48.4297 73.9883 46.9062C73.9883 46.3203 74.082 45.5352 74.2695 44.5508C74.3867 43.9648 74.5391 43.2852 74.7266 42.5117L84.0781 7.35547ZM117.266 24.6172C117.266 22.9297 116.879 21.6875 116.105 20.8906C115.332 20.0938 114.395 19.6953 113.293 19.6953C109.473 19.6953 105.922 22.625 102.641 28.4844C99.7578 33.6406 98.3164 38.082 98.3164 41.8086C98.3164 43.6836 98.7148 45.0547 99.5117 45.9219C100.332 46.7656 101.34 47.1875 102.535 47.1875C106.074 47.1875 109.484 44.3398 112.766 38.6445C115.766 33.4648 117.266 28.7891 117.266 24.6172ZM112.871 18.1133C114.723 18.1133 116.152 18.5938 117.16 19.5547C117.699 20.0703 118.121 20.75 118.426 21.5938L118.602 22.0859L119.375 19.4141C119.469 19.1094 119.551 18.9102 119.621 18.8164C119.691 18.6992 119.855 18.6289 120.113 18.6055L124.086 18.1484C124.297 18.1484 124.414 18.1953 124.438 18.2891C124.484 18.3594 124.484 18.5 124.438 18.7109C124.344 19.0156 124.273 19.2617 124.227 19.4492C124.18 19.6133 124.109 19.8594 124.016 20.1875L120.781 32.7734C120.078 35.5156 119.48 37.8828 118.988 39.875C118.121 43.4844 117.688 45.5469 117.688 46.0625C117.688 46.3906 117.77 46.6367 117.934 46.8008C118.121 46.9414 118.344 47.0117 118.602 47.0117C118.812 47.0117 119.035 46.9414 119.27 46.8008C119.527 46.6602 119.832 46.4492 120.184 46.168L120.781 45.6758C120.969 45.5117 121.18 45.3242 121.414 45.1133C121.648 44.8789 121.93 44.5977 122.258 44.2695L124.438 42.0195L125.281 42.7578C122.844 45.875 120.887 47.9961 119.41 49.1211C117.934 50.2227 116.527 50.7734 115.191 50.7734C114.324 50.7734 113.645 50.4688 113.152 49.8594C112.684 49.25 112.449 48.4883 112.449 47.5742C112.449 46.7305 112.602 45.5234 112.906 43.9531C113.234 42.3594 113.551 41.0234 113.855 39.9453C113.434 40.6484 112.719 41.6797 111.711 43.0391C110.727 44.375 109.508 45.6758 108.055 46.9414C106.344 48.4648 104.703 49.543 103.133 50.1758C101.914 50.5977 100.742 50.8086 99.6172 50.8086C97.7188 50.8086 95.9961 50.0352 94.4492 48.4883C92.9023 46.918 92.1289 44.7031 92.1289 41.8438C92.1289 36.9219 94.332 31.7891 98.7383 26.4453C103.285 20.8906 107.996 18.1133 112.871 18.1133ZM128.34 50L134.422 28.2734C134.938 26.4453 135.23 25.3438 135.301 24.9688C135.395 24.5703 135.441 24.1484 135.441 23.7031C135.441 23.0234 135.242 22.4961 134.844 22.1211C134.469 21.7227 133.719 21.5234 132.594 21.5234C132.312 21.5234 132.031 21.5469 131.75 21.5938C131.492 21.6172 131.199 21.6523 130.871 21.6992V20.5039C132.395 20.2695 133.473 20.0938 134.105 19.9766C134.762 19.8594 135.465 19.7188 136.215 19.5547L142.508 18.1836C142.648 18.2773 142.742 18.3828 142.789 18.5L138.113 33.6172C140.973 29.2344 143.363 25.9766 145.285 23.8438C148.66 20.0703 151.684 18.1836 154.355 18.1836C155.387 18.1836 156.277 18.3828 157.027 18.7812C158.457 19.5547 159.172 20.9492 159.172 22.9648C159.172 23.5273 159.113 24.1133 158.996 24.7227C158.879 25.332 158.727 25.9883 158.539 26.6914L153.934 43.5312C153.84 43.8828 153.734 44.3164 153.617 44.832C153.5 45.3242 153.441 45.6758 153.441 45.8867C153.441 46.2383 153.523 46.5547 153.688 46.8359C153.852 47.1172 154.121 47.2578 154.496 47.2578C155.105 47.2578 155.809 46.9062 156.605 46.2031C157.402 45.4766 158.703 43.9414 160.508 41.5977L161.527 42.5117C159.605 45.1133 158.082 46.9414 156.957 47.9961C155.035 49.8477 153.195 50.7734 151.438 50.7734C150.641 50.7734 149.867 50.5156 149.117 50C148.391 49.4609 148.027 48.5 148.027 47.1172C148.027 46.7188 148.051 46.2969 148.098 45.8516C148.168 45.4062 148.25 45.0195 148.344 44.6914L152.773 27.6055C153.008 26.668 153.16 25.9062 153.23 25.3203C153.324 24.7109 153.371 24.2773 153.371 24.0195C153.371 23.457 153.23 22.9766 152.949 22.5781C152.691 22.1562 152.223 21.9453 151.543 21.9453C149.785 21.9453 147.57 23.5391 144.898 26.7266C143.328 28.625 141.734 30.8867 140.117 33.5117C138.875 35.5508 137.891 37.543 137.164 39.4883C136.461 41.4102 135.336 44.9141 133.789 50H128.34ZM166.642 50V16.6318H173.435V44.3315H190.326V50H166.642ZM195.191 50V16.3564H220.137V22.0479H201.984V29.5063H218.875V35.1748H201.984V44.3315H220.779V50H195.191ZM242.191 37.6304V31.9619H256.833V45.3643C255.41 46.7412 253.344 47.9575 250.636 49.0132C247.944 50.0535 245.213 50.5737 242.443 50.5737C238.924 50.5737 235.857 49.8394 233.241 48.3706C230.625 46.8866 228.659 44.7752 227.343 42.0366C226.027 39.2827 225.369 36.2917 225.369 33.0635C225.369 29.5599 226.104 26.4465 227.572 23.7231C229.041 20.9998 231.191 18.9115 234.021 17.458C236.178 16.3411 238.863 15.7827 242.076 15.7827C246.253 15.7827 249.512 16.6624 251.853 18.4219C254.209 20.166 255.723 22.5833 256.396 25.6738L249.649 26.936C249.175 25.2837 248.28 23.9832 246.964 23.0347C245.664 22.0708 244.035 21.5889 242.076 21.5889C239.108 21.5889 236.744 22.5298 234.985 24.4116C233.241 26.2935 232.369 29.0856 232.369 32.7881C232.369 36.7812 233.256 39.7799 235.031 41.7842C236.806 43.7731 239.131 44.7676 242.007 44.7676C243.43 44.7676 244.853 44.4922 246.276 43.9414C247.714 43.3753 248.946 42.6945 249.971 41.8989V37.6304H242.191ZM278.772 37.6304V31.9619H293.414V45.3643C291.991 46.7412 289.925 47.9575 287.217 49.0132C284.525 50.0535 281.794 50.5737 279.024 50.5737C275.506 50.5737 272.438 49.8394 269.822 48.3706C267.206 46.8866 265.24 44.7752 263.924 42.0366C262.608 39.2827 261.95 36.2917 261.95 33.0635C261.95 29.5599 262.685 26.4465 264.153 23.7231C265.622 20.9998 267.772 18.9115 270.602 17.458C272.759 16.3411 275.444 15.7827 278.657 15.7827C282.834 15.7827 286.093 16.6624 288.434 18.4219C290.79 20.166 292.304 22.5833 292.978 25.6738L286.23 26.936C285.756 25.2837 284.861 23.9832 283.545 23.0347C282.245 22.0708 280.616 21.5889 278.657 21.5889C275.689 21.5889 273.325 22.5298 271.566 24.4116C269.822 26.2935 268.95 29.0856 268.95 32.7881C268.95 36.7812 269.837 39.7799 271.612 41.7842C273.387 43.7731 275.712 44.7676 278.588 44.7676C280.011 44.7676 281.434 44.4922 282.857 43.9414C284.295 43.3753 285.527 42.6945 286.552 41.8989V37.6304H278.772ZM299.702 50V16.3564H324.647V22.0479H306.495V29.5063H323.385V35.1748H306.495V44.3315H325.29V50H299.702ZM331.073 50V16.3564H345.371C348.966 16.3564 351.575 16.6624 353.196 17.2744C354.833 17.8711 356.141 18.9421 357.121 20.4873C358.1 22.0326 358.589 23.7996 358.589 25.7886C358.589 28.313 357.847 30.4014 356.363 32.0537C354.879 33.6908 352.661 34.7235 349.708 35.1519C351.177 36.0086 352.385 36.9495 353.334 37.9746C354.298 38.9997 355.591 40.8203 357.212 43.4365L361.32 50H353.196L348.285 42.6792C346.541 40.063 345.348 38.4183 344.705 37.7451C344.062 37.0566 343.382 36.59 342.663 36.3452C341.944 36.0851 340.804 35.9551 339.243 35.9551H337.866V50H331.073ZM337.866 30.585H342.892C346.151 30.585 348.186 30.4473 348.997 30.1719C349.807 29.8965 350.442 29.4222 350.901 28.749C351.36 28.0758 351.59 27.2344 351.59 26.2246C351.59 25.0924 351.284 24.1821 350.672 23.4937C350.075 22.7899 349.226 22.3462 348.125 22.1626C347.574 22.0861 345.921 22.0479 343.167 22.0479H337.866V30.585ZM364.809 50V16.3564H371.602V50H364.809Z" fill="white"/>
</svg>
