<svg width="33" height="33" viewBox="0 0 33 33" fill="none" xmlns="http://www.w3.org/2000/svg">
<path d="M6.98047 24.4414C6.98047 26.3867 7.46094 28.0039 8.42188 29.293C9.40625 30.5586 10.8359 31.1914 12.7109 31.1914C16.5312 31.1914 19.918 28.3086 22.8711 22.543C25.3789 17.5977 26.6328 13.0508 26.6328 8.90234C26.6328 7.14453 26.4219 5.72656 26 4.64844C25.1797 2.60938 23.6797 1.58984 21.5 1.58984C17.9141 1.58984 14.5508 4.27344 11.4102 9.64062C8.45703 14.6562 6.98047 19.5898 6.98047 24.4414ZM21.8867 0.113281C25.8242 0.113281 28.6016 1.16797 30.2188 3.27734C31.8359 5.36328 32.6445 7.83594 32.6445 10.6953C32.6445 15.6641 30.4531 20.5391 26.0703 25.3203C21.5469 30.2891 16.7188 32.7734 11.5859 32.7734C8.35156 32.7734 5.76172 31.8359 3.81641 29.9609C1.87109 28.0859 0.898438 25.4492 0.898438 22.0508C0.898438 16.918 3.07812 12.0078 7.4375 7.32031C11.8906 2.51562 16.707 0.113281 21.8867 0.113281Z" fill="white"/>
</svg>
