<svg width="31" height="34" viewBox="0 0 31 34" fill="none" xmlns="http://www.w3.org/2000/svg">
<path d="M0.442383 34V0.356445H14.7397C18.3351 0.356445 20.9437 0.662435 22.5654 1.27441C24.2025 1.87109 25.5106 2.94206 26.4897 4.4873C27.4689 6.03255 27.9585 7.79964 27.9585 9.78857C27.9585 12.313 27.2165 14.4014 25.7324 16.0537C24.2484 17.6908 22.0299 18.7235 19.0771 19.1519C20.5459 20.0086 21.7546 20.9495 22.7031 21.9746C23.667 22.9997 24.9598 24.8203 26.5815 27.4365L30.6895 34H22.5654L17.6543 26.6792C15.9102 24.063 14.7168 22.4183 14.0742 21.7451C13.4316 21.0566 12.7508 20.59 12.0317 20.3452C11.3127 20.0851 10.1729 19.9551 8.6123 19.9551H7.23535V34H0.442383ZM7.23535 14.585H12.2612C15.52 14.585 17.5549 14.4473 18.3657 14.1719C19.1766 13.8965 19.8115 13.4222 20.2705 12.749C20.7295 12.0758 20.959 11.2344 20.959 10.2246C20.959 9.09245 20.653 8.18213 20.041 7.49365C19.4443 6.78988 18.5952 6.34619 17.4937 6.1626C16.9429 6.0861 15.2905 6.04785 12.5366 6.04785H7.23535V14.585Z" fill="white"/>
</svg>
